<?xml version="1.0" encoding="UTF-8"?> <svg xmlns="http://www.w3.org/2000/svg" width="796" height="360" viewBox="0 0 796 360" fill="none"> <path d="M117.004 46.2996C116.357 57.127 115.791 64.076 115.306 67.1465C117.246 62.6216 120.398 56.3998 124.762 48.4812L149.248 3.39369H192.161L117.973 117.082L98.5779 175.502H60.2721L80.6372 114.173L81.1221 3.39369H118.943L117.004 46.2996Z" fill="black"></path> <path d="M113.875 175.502L203.093 3.39369H254.733L229.762 175.502H192.911L198.244 144.474H167.454L152.908 175.502H113.875ZM213.518 58.1775L217.397 37.573C214.165 45.4915 211.336 51.8749 208.912 56.723L182.971 111.992H204.063L213.518 58.1775Z" fill="black"></path> <path d="M325.714 108.84C326.037 107.709 326.765 105.123 327.896 101.083C329.189 97.0432 330.563 93.0031 332.017 88.963L360.141 3.39369H395.295L338.079 175.502H297.348L302.682 86.539C303.005 80.7212 303.328 76.1155 303.652 72.7218C303.975 69.1665 304.217 66.8233 304.379 65.6921C304.056 66.8233 303.248 69.409 301.955 73.449C300.823 77.4892 299.53 81.5293 298.076 85.5694L268.498 175.502H233.344L290.56 3.39369H332.26L327.169 87.9934L325.714 108.84Z" fill="black"></path> <path d="M419.219 110.537L429.886 78.0548H482.254L449.767 175.502H422.371L424.795 161.685C420.431 167.018 415.986 170.896 411.461 173.32C407.097 175.583 402.006 176.714 396.187 176.714C386.166 176.714 378.731 173.078 373.882 165.806C369.195 158.372 366.851 148.191 366.851 135.263C366.851 119.749 370.165 101.649 376.792 80.9636C394.409 26.9879 419.3 0 451.464 0C464.556 0 474.415 4.2017 481.042 12.6051C487.83 20.8469 491.628 31.6744 492.437 45.0875L458.252 56.4806C457.606 47.1076 456.393 40.5626 454.616 36.8457C452.999 33.1288 450.736 31.2704 447.827 31.2704C442.655 31.2704 437.564 35.3105 432.553 43.3907C427.704 51.4709 421.805 66.0961 414.855 87.2662C408.228 107.628 404.915 123.142 404.915 133.808C404.915 142.696 407.339 147.141 412.188 147.141C417.037 147.141 421.563 143.828 425.765 137.202C429.967 130.576 433.685 122.415 436.917 112.719L437.645 110.537H419.219Z" fill="black"></path> <path d="M519.096 178.653C505.034 178.653 494.771 174.613 488.306 166.533C481.84 158.291 478.608 147.06 478.608 132.839C478.608 117.971 481.84 100.679 488.306 80.9636C496.872 54.299 507.458 34.1793 520.065 20.6045C532.672 7.02977 546.572 0.242403 561.765 0.242403C575.827 0.242403 586.091 4.36331 592.556 12.6051C599.021 20.6853 602.253 31.836 602.253 46.0572C602.253 60.9247 599.021 78.2164 592.556 97.9321C583.989 124.597 573.403 144.716 560.796 158.291C548.189 171.866 534.289 178.653 519.096 178.653ZM522.975 147.868C527.339 147.868 531.945 143.747 536.794 135.505C541.804 127.263 547.704 112.638 554.492 91.6295C561.927 69.0049 565.645 52.9253 565.645 43.3907C565.645 35.1489 563.059 31.028 557.886 31.028C553.522 31.028 548.835 35.1489 543.825 43.3907C538.976 51.6325 533.157 66.2577 526.369 87.2662C518.934 109.568 515.217 125.647 515.217 135.505C515.217 143.747 517.803 147.868 522.975 147.868Z" fill="black"></path> <path d="M0 360L57.2163 187.892H95.7646C109.18 187.892 119.686 191.609 127.282 199.042C135.04 206.476 138.919 217.869 138.919 233.222C138.919 246.312 135.929 262.149 129.949 280.733C123.645 300.287 116.857 315.882 109.584 327.518C102.472 338.991 94.714 347.314 86.3094 352.485C77.9047 357.495 68.3687 360 57.7012 360H0ZM56.9739 328.73C60.5297 328.73 63.9239 327.598 67.1565 325.336C70.5507 322.912 74.2681 317.821 78.3088 310.064C82.5111 302.307 86.9559 290.833 91.6431 275.643C97.6234 256.573 100.613 242.433 100.613 233.222C100.613 227.565 99.6437 223.849 97.7042 222.071C95.7646 220.132 93.1786 219.162 89.946 219.162H85.0972L48.7309 328.73H56.9739Z" fill="black"></path> <path d="M168.02 187.892H250.693L240.025 220.374H195.658L184.264 254.553H224.994L214.084 287.036H173.354L159.777 327.518H205.114L194.446 360H110.804L168.02 187.892Z" fill="black"></path> <path d="M259.409 187.892H297.715L251.166 327.518H290.442L279.774 360H202.193L259.409 187.892Z" fill="black"></path> <path d="M345.116 187.892H383.422L326.206 360H287.9L345.116 187.892Z" fill="black"></path> <path d="M409.422 286.551C408.614 291.722 407.725 296.651 406.755 301.338L405.786 307.155C409.341 298.752 412.089 292.369 414.029 288.005L459.123 187.892H500.58L411.362 360H362.146L387.118 187.892H425.423L409.422 286.551Z" fill="black"></path> <path d="M504.219 187.892H586.892L576.224 220.374H531.857L520.463 254.553H561.193L550.283 287.036H509.553L495.976 327.518H541.313L530.645 360H447.003L504.219 187.892Z" fill="black"></path> <path d="M639.005 187.892C651.289 187.892 660.906 191.689 667.856 199.285C674.806 206.88 678.281 216.496 678.281 228.131C678.281 234.11 677.15 240.655 674.887 247.766C667.937 269.259 655.492 283.076 637.551 289.217L639.49 360H602.154L602.882 292.611H598.033L575.728 360H538.392L595.608 187.892H639.005ZM640.218 242.918C641.349 238.07 641.915 234.11 641.915 231.04C641.915 226.677 640.945 223.202 639.005 220.616C637.228 218.031 634.48 216.738 630.762 216.738H623.247L607.246 264.492H616.701C622.358 264.492 627.207 262.553 631.247 258.674C635.45 254.634 638.44 249.382 640.218 242.918Z" fill="black"></path> <path d="M720.843 230.798C720.196 241.625 719.631 248.574 719.146 251.644C721.085 247.12 724.237 240.898 728.601 232.979L753.088 187.892H796L721.813 301.58L702.417 360H664.111L684.477 298.671L684.961 187.892H722.782L720.843 230.798Z" fill="black"></path> </svg> 